<svg style="width:0; height:0; visibility: hidden;" xmlns="http://www.w3.org/2000/svg">

    <!-- phone -->
	<symbol id="svg-phone" viewBox="0 0 14 14">
		<g>
			<path d="M2.09885 0.000317805C1.86452 0.00740442 1.65866 0.131077 1.48636 0.303361L1.19888 0.590374L4.31442 3.76268L4.76669 3.31038C5.03926 3.03782 5.03926 2.58779 4.76669 2.31523L2.75436 0.303361C2.55946 0.108453 2.33317 -0.00687511 2.09885 0.000317805ZM7.49954 1.18181C10.2206 1.18181 12.4219 3.38308 12.4219 6.10414C12.4148 6.42366 12.8977 6.42366 12.8906 6.10414C12.8906 3.12975 10.4739 0.714889 7.48833 0.714889C7.18959 0.750676 7.20992 1.17379 7.49955 1.18181H7.49954ZM0.866548 0.921802L0.536499 1.25139C-0.00356327 1.79145 6.04703e-07 2.49807 6.04703e-07 2.82424C6.04703e-07 4.17392 0.539576 6.50728 3.81821 9.78591C7.09685 13.0646 9.43066 13.6046 10.7803 13.6046C11.1065 13.6046 11.8132 13.6081 12.3532 13.0681L12.6517 12.7696L9.53613 9.59733L9.20929 9.92462C9.0156 10.1183 8.87266 10.1415 8.73367 10.1251C8.5947 10.1088 8.45102 10.0284 8.34595 9.94706C7.77301 9.5035 6.8454 8.86858 5.79071 7.81389C4.73602 6.7592 4.1011 5.83111 3.65753 5.25819C3.57621 5.15311 3.4958 5.01126 3.47946 4.87229C3.46308 4.7333 3.48823 4.58855 3.68179 4.39485L3.98254 4.09411L0.866548 0.921802ZM7.49954 2.11976C7.19388 2.12684 7.19388 2.58175 7.49954 2.58851C9.44394 2.58851 11.0152 4.15973 11.0152 6.10414C11.0219 6.40978 11.4771 6.40978 11.4839 6.10414C11.4839 3.9064 9.69728 2.11976 7.49954 2.11976ZM7.49954 3.526C7.18674 3.526 7.18674 3.99522 7.49954 3.99522C8.66729 3.99522 9.60846 4.93639 9.60846 6.10414C9.60846 6.41694 10.0777 6.41694 10.0777 6.10414C10.0777 4.68305 8.92063 3.526 7.49954 3.526ZM7.49954 5.40192C7.89064 5.40192 8.20404 5.71304 8.20404 6.10414C8.19695 6.42366 8.67988 6.42366 8.67279 6.10414C8.67279 5.45971 8.14398 4.93271 7.48833 4.93271C7.16454 4.94785 7.18697 5.41709 7.49955 5.40192H7.49954ZM10.7913 8.63327C10.6108 8.63327 10.4305 8.70158 10.2942 8.83791L9.86755 9.26501L12.9836 12.4377L13.3012 12.1201C13.4735 11.9478 13.5966 11.7401 13.6038 11.5057C13.6109 11.2714 13.4961 11.0451 13.3012 10.8502L11.2889 8.83791C11.1526 8.70162 10.9719 8.63327 10.7913 8.63327Z" fill="#F5F5F5"/>
		</g>
	</symbol>


    <!-- vkontakte -->
	<symbol id="svg-vk" viewBox="0 0 25 16">
		<g>
            <path fill-rule="evenodd" clip-rule="evenodd" d="M24.4271 1.69551C24.6 1.12676 24.4271 0.708008 23.599 0.708008H20.8646C20.1688 0.708008 19.8479 1.06947 19.674 1.46842C19.674 1.46842 18.2833 4.79759 16.3135 6.96009C15.676 7.58717 15.3865 7.78613 15.0385 7.78613C14.8646 7.78613 14.6031 7.58717 14.6031 7.01738V1.69551C14.6031 1.01217 14.4115 0.708008 13.8323 0.708008H9.53229C9.09792 0.708008 8.83646 1.02467 8.83646 1.32572C8.83646 1.97259 9.82187 2.12259 9.92292 3.94342V7.89967C9.92292 8.76738 9.76354 8.92467 9.41562 8.92467C8.48854 8.92467 6.23333 5.57988 4.89479 1.7528C4.63542 1.00801 4.37292 0.708008 3.67396 0.708008H0.9375C0.15625 0.708008 0 1.06947 0 1.46842C0 2.17884 0.927083 5.70801 4.31771 10.3757C6.57812 13.5632 9.76042 15.2913 12.6594 15.2913C14.3979 15.2913 14.6125 14.908 14.6125 14.2465V11.8372C14.6125 11.0695 14.7771 10.9163 15.3281 10.9163C15.7344 10.9163 16.4292 11.1163 18.0521 12.6528C19.9062 14.4747 20.2115 15.2913 21.2552 15.2913H23.9896C24.7708 15.2913 25.1625 14.908 24.9375 14.1497C24.6896 13.3955 23.8042 12.3007 22.6302 11.0018C21.9927 10.2622 21.0365 9.4653 20.7458 9.06634C20.3406 8.55488 20.4562 8.32676 20.7458 7.87155C20.7458 7.87155 24.0792 3.26113 24.426 1.69551H24.4271Z"/>
		</g>
	</symbol>

    <!-- whatsapp -->
	<symbol id="svg-wa" viewBox="0 0 21 20">
		<g>
            <path d="M18.9996 4.62485C15.9996 -0.000152886 9.8746 -1.37515 5.1246 1.49985C0.499602 4.37485 -1.0004 10.6248 1.9996 15.2498L2.2496 15.6248L1.2496 19.3748L4.9996 18.3748L5.3746 18.6248C6.9996 19.4998 8.7496 19.9998 10.4996 19.9998C12.3746 19.9998 14.2496 19.4998 15.8746 18.4998C20.4996 15.4998 21.8746 9.37485 18.9996 4.62485ZM16.3746 14.2498C15.8746 14.9998 15.2496 15.4998 14.3746 15.6248C13.8746 15.6248 13.2496 15.8748 10.7496 14.8748C8.6246 13.8748 6.8746 12.2498 5.6246 10.3748C4.8746 9.49985 4.4996 8.37485 4.3746 7.24985C4.3746 6.24985 4.7496 5.37485 5.3746 4.74985C5.6246 4.49985 5.8746 4.37485 6.1246 4.37485H6.7496C6.9996 4.37485 7.2496 4.37485 7.3746 4.87485C7.6246 5.49985 8.2496 6.99985 8.2496 7.12485C8.3746 7.24985 8.3746 7.49985 8.2496 7.62485C8.3746 7.87485 8.2496 8.12485 8.1246 8.24985C7.9996 8.37485 7.8746 8.62485 7.7496 8.74985C7.4996 8.87485 7.3746 9.12485 7.4996 9.37485C7.9996 10.1248 8.6246 10.8748 9.2496 11.4998C9.9996 12.1248 10.7496 12.6248 11.6246 12.9998C11.8746 13.1248 12.1246 13.1248 12.2496 12.8748C12.3746 12.6248 12.9996 11.9998 13.2496 11.7498C13.4996 11.4998 13.6246 11.4998 13.8746 11.6248L15.8746 12.6248C16.1246 12.7498 16.3746 12.8748 16.4996 12.9998C16.6246 13.3748 16.6246 13.8748 16.3746 14.2498Z"/>
		</g>
	</symbol>
</svg>